<svg width="41" height="41" fill="none" xmlns="http://www.w3.org/2000/svg"><path fill-rule="evenodd" clip-rule="evenodd" d="M18.94.76c-1.936.22-3.106.454-4.511.903-3.134 1.002-5.86 2.682-8.187 5.048C3.124 9.88 1.294 13.616.611 18.203c-.14.94-.14 4.147 0 5.086.697 4.683 2.626 8.543 5.853 11.714 3.172 3.117 6.909 4.946 11.498 5.629.94.14 4.148.14 5.088 0 4.589-.683 8.326-2.512 11.497-5.63 3.228-3.17 5.156-7.03 5.854-11.713.14-.94.14-4.147 0-5.086-.698-4.683-2.626-8.543-5.854-11.714C31.44 3.435 27.777 1.61 23.35.908 22.62.792 19.561.689 18.94.76zm4.227 3.276c3.586.61 6.732 2.229 9.28 4.775 2.566 2.566 4.177 5.71 4.788 9.346.196 1.166.196 4.012 0 5.178-.61 3.636-2.222 6.78-4.788 9.346-2.567 2.566-5.713 4.176-9.35 4.787-1.167.196-4.015.196-5.181 0-3.638-.61-6.784-2.221-9.35-4.787-2.568-2.565-4.179-5.71-4.79-9.346-.195-1.166-.195-4.012 0-5.178.611-3.636 2.222-6.78 4.79-9.346 2.826-2.826 6.168-4.41 10.374-4.918.63-.076 3.512.022 4.227.143zm-3.327 6.138a1.443 1.443 0 00-.779.81c-.105.25-.12.947-.12 5.224 0 5.252-.002 5.236.374 5.662.289.328 6.665 5.043 6.942 5.135 1.261.416 2.42-.959 1.832-2.173-.147-.303-.528-.616-3.092-2.538-2.925-2.193-2.925-2.193-2.927-6.624-.002-4.14-.011-4.451-.146-4.744a1.565 1.565 0 00-2.084-.752z" fill="#fff"/></svg>