<svg width="51" height="36" fill="none" xmlns="http://www.w3.org/2000/svg"><path fill-rule="evenodd" clip-rule="evenodd" d="M6.316 1.359a2.59 2.59 0 00-.467.415C5.6 2.087.506 16.392.506 16.786c0 .502.236 1.02.6 1.312.359.29 4.534 2.136 4.83 2.137.102 0 .389-.08.638-.18.453-.178.453-.178 2.119.98.916.636 1.712 1.219 1.769 1.294.074.098.061.27-.044.598-.21.658-.185 1.675.056 2.265.41 1 1.356 1.72 2.263 1.723.415 0 .464.026.465.244.001.376.423 1.286.777 1.677a2.575 2.575 0 001.614.851c.512.058.512.058.665.665.285 1.126 1.31 2.039 2.35 2.091.403.02.466.057.513.293.141.701.277 1.002.675 1.49.592.726 1.237 1.025 2.089.968.845-.057 1.302-.313 1.997-1.118.574-.664.574-.664 1.293-.095.91.72 1.526.955 2.323.884 1.152-.102 2.228-1.015 2.558-2.17.157-.552.157-.552 1.1-.552.861 0 .986-.027 1.465-.32.8-.489 1.313-1.275 1.462-2.241.07-.457.07-.457.8-.517.471-.04.876-.145 1.142-.298.797-.456 1.419-1.36 1.547-2.245.06-.414.06-.414.733-.379.774.041 1.444-.23 2.07-.835.745-.723 1.11-2.132.82-3.165-.145-.517-.145-.517.217-.77.2-.138.817-.577 1.374-.974 1.012-.722 1.012-.722 1.532-.431.411.23.596.275.877.217.524-.109 4.415-1.836 4.749-2.11.327-.266.562-.805.562-1.29 0-.441-1.904-5.736-2.151-5.984-.446-.445-1.17-.086-1.169.58 0 .157.413 1.437.918 2.845.504 1.408.882 2.584.84 2.613-.14.095-3.8 1.67-3.879 1.67-.131-.002-5.048-13.902-4.952-14 .095-.095 3.876-1.746 3.904-1.705.008.014.445 1.237.97 2.719.985 2.78 1.194 3.18 1.671 3.18.299 0 .723-.447.723-.762 0-.376-2.029-5.935-2.27-6.22-.313-.37-.692-.563-1.102-.563-.217 0-1.221.378-2.587.975-1.86.813-2.282 1.038-2.527 1.345-.286.36-.45.904-.385 1.28.026.149-.204.283-1.136.665-1.728.708-2.108.758-3.703.487-.728-.124-1.456-.226-1.62-.226-.426 0-.705.348-.667.831.046.599.315.739 1.934 1.008 1.85.307 2.468.256 3.972-.331 1.593-.621 1.785-.688 1.822-.636.076.104 4.07 11.38 4.07 11.49 0 .066-.69.608-1.534 1.204-1.533 1.085-1.533 1.085-1.83.836-.164-.137-1.568-1.284-3.12-2.549-2.33-1.9-2.873-2.297-3.125-2.287-1.933.083-2.889.037-3.624-.175-1.128-.325-2.595-1.173-3.467-2.004-1.227-1.17-1.346-1.26-1.743-1.32-.575-.085-.967.11-1.942.968-1.032.908-1.733 1.391-2.586 1.785-.499.23-.77.284-1.444.284-.877 0-1.332-.172-1.836-.698-.382-.397-.252-.627.82-1.45 1.776-1.365 3.468-2.928 5.517-5.096.518-.548 1.1-1.07 1.294-1.159.472-.217 1.152-.204 2.555.052 1.55.282 1.819.278 2.083-.032a.986.986 0 00.212-.544c0-.31-.382-.823-.611-.823-.073 0-.855-.126-1.738-.28-1.408-.246-1.683-.265-2.23-.157-.845.168-1.408.506-2.204 1.322-.672.689-.672.689-1.424.448-.89-.285-2.343-.447-5.074-.566-2.002-.087-2.002-.087-2.832-.475-.635-.296-.823-.43-.798-.573.065-.374-.099-.919-.385-1.279-.245-.307-.666-.532-2.526-1.345-2.37-1.035-2.757-1.127-3.274-.774zm2.686 2.28c.993.428 1.847.82 1.896.87.107.108-4.828 14-4.972 13.996-.23-.007-3.88-1.676-3.877-1.774.006-.288 4.964-13.953 5.048-13.915l1.905.823zm3.943 3.303c.873.388.927.398 2.697.483 1.97.094 4.287.28 4.712.378.148.034.269.099.269.144 0 .205-2.477 2.409-4.002 3.562-1.066.805-1.37 1.28-1.37 2.144 0 .312.071.73.157.93.224.52.84 1.096 1.59 1.483.894.462 2.108.532 3.151.183 1.2-.403 2.46-1.194 3.599-2.261.295-.277.59-.54.657-.583.074-.048.354.163.733.552 2.021 2.075 4.741 3.186 7.376 3.013.904-.06.904-.06 3.893 2.375 1.748 1.424 3.065 2.573 3.172 2.767.288.52.25 1.36-.08 1.793-.46.604-1.133.79-1.723.477-.169-.09-1.077-.818-2.017-1.616-1.854-1.577-2.056-1.673-2.494-1.19-.24.264-.294.531-.179.863.034.096.692.712 1.464 1.369 1.193 1.014 1.42 1.255 1.515 1.601.285 1.05-.39 2.046-1.386 2.046-.464 0-.794-.218-2.376-1.564-1.398-1.19-1.66-1.34-2.057-1.171-.235.1-.457.645-.387.951.04.175.463.608 1.227 1.257 1.412 1.198 1.549 1.375 1.549 2.002 0 1.083-.77 1.798-1.725 1.6-.223-.046-.84-.488-1.774-1.269-1.164-.973-1.495-1.2-1.763-1.2-.594-.004-.922.81-.519 1.287.097.114.51.49.919.835.815.69 1.008 1.04.929 1.688-.072.593-.389 1.032-.9 1.247-.584.246-.93.156-1.729-.45-.652-.497-.652-.497-.323-1.024.423-.68.59-1.52.447-2.258-.148-.758-.319-1.078-.873-1.627-.518-.514-1.017-.735-1.66-.735-.378 0-.405-.02-.405-.302 0-.462-.46-1.379-.898-1.794-.446-.42-1.112-.706-1.647-.706-.34 0-.366-.024-.43-.4a2.877 2.877 0 00-.824-1.572c-.467-.465-.917-.69-1.572-.787-.437-.064-.483-.098-.542-.407-.259-1.353-1.36-2.33-2.626-2.33-1.027 0-1.555.352-2.651 1.768-.493.637-.493.637-1.512-.09l-1.953-1.392c-.934-.664-.934-.664 1.172-6.562 1.159-3.244 2.145-5.9 2.192-5.9.047-.002.487.175.977.392zm2.559 13.731c.36.373.484.939.308 1.403-.13.343-1.717 2.463-2.195 2.932-.476.467-1.444.264-1.739-.364-.171-.366-.178-.93-.016-1.248.23-.452 1.978-2.657 2.267-2.86.387-.272 1.043-.207 1.375.137zm2.843 2.682c.35.235.584.884.482 1.335-.068.298-.696 1.197-1.684 2.412-.753.926-1.147 1.121-1.725.855-.61-.282-.925-1.127-.642-1.722.159-.333 1.92-2.628 2.21-2.88.317-.275.95-.275 1.359 0zm2.702 2.632c.527.243.773.677.721 1.274-.038.442-.135.627-.766 1.452-.398.52-.945 1.202-1.217 1.515-.456.525-.528.568-.944.568-.843 0-1.437-.916-1.123-1.73.21-.541 2.09-2.9 2.451-3.073.39-.187.485-.187.878-.006zm3.093 2.817c.362.206.582.672.582 1.228 0 .383-.088.55-.756 1.432-1.568 2.07-1.835 2.28-2.577 2.035-.719-.238-1.02-1.341-.552-2.015.504-.724 1.85-2.41 2.09-2.618.307-.267.809-.293 1.213-.062z" fill="#fff" stroke="#fff"/></svg>