<svg width="41" height="42" fill="none" xmlns="http://www.w3.org/2000/svg"><path fill-rule="evenodd" clip-rule="evenodd" d="M12.732 2.696c-1.58.963-3.636 2.86-4.57 4.214-.933 1.355-3.033 3.869-4.667 5.587-2.909 3.06-3.898 6.953-2.057 8.09.503.311.914 3.37.914 6.798 0 4.31.406 6.569 1.317 7.324.724.6 1.443 2.194 1.6 3.54.236 2.046.73 2.446 3.024 2.446 2.148 0 2.805-.446 3.035-2.056.278-1.967.667-2.057 8.933-2.057 8.377 0 8.669.07 9.51 2.285 1.318 3.467 6.398 2.809 6.398-.829 0-1.102.511-2.515 1.136-3.14.625-.626 1.422-3.895 1.772-7.266.348-3.372.904-7.415 1.234-8.984.508-2.414.13-3.348-2.456-6.064-1.681-1.767-3.82-4.32-4.754-5.674-4.076-5.915-14.158-8-20.369-4.214zm15.632 2.788c1.607.994 3.419 2.898 4.027 4.232.966 2.121.87 2.59-.757 3.73-1.4.98-1.863 2.316-1.863 5.366 0 4.06 0 4.06-9.14 4.06-9.139 0-9.139 0-9.139-4.06 0-3.077-.46-4.385-1.9-5.392-1.802-1.262-1.824-1.473-.444-4.14.798-1.547 2.579-3.424 3.955-4.17 3.704-2.01 11.721-1.813 15.26.374zM8.718 16.414c1.358 2.539 1.17 5.005-.616 8.117-1.312 2.286-1.367 2.956-.345 4.187 1.001 1.207 3.298 1.466 12.954 1.466 10.655 0 11.825-.162 12.68-1.762.994-1.855.408-4.635-.975-4.635-.45 0-.817-1.595-.817-3.545 0-3.832 1.664-5.935 4.298-5.433 1.888.36 2.738 4.135 1.264 5.61-.546.545-.992 3.744-.992 7.108 0 4.736-.326 6.243-1.446 6.672-1.883.723-26.3.723-28.183 0-1.123-.431-1.446-1.948-1.446-6.8 0-3.436-.411-6.5-.914-6.811-1.026-.635-1.241-4.395-.304-5.332 1.215-1.215 3.917-.568 4.842 1.159zM31.6 26.529c0 .559-4.265.914-10.967.914-6.703 0-10.968-.355-10.968-.913 0-.559 4.266-.915 10.968-.915s10.967.356 10.967.915zM9.207 37.496c.31.503-.1.914-.914.914-.813 0-1.225-.411-.914-.914.31-.503.722-.914.914-.914.192 0 .603.411.914.914zm24.677 0c.311.503-.077.914-.86.914S31.6 38 31.6 37.496c0-.503.387-.914.86-.914.474 0 1.114.411 1.425.914z" fill="#fff"/></svg>