<svg width="20" height="20" fill="none" xmlns="http://www.w3.org/2000/svg"><path d="M11.03.001c.729-.003 1.459.005 2.188.022l.194.007c.224.008.445.018.712.03 1.064.05 1.79.218 2.427.465.66.254 1.216.598 1.772 1.154.508.5.902 1.104 1.153 1.771.247.637.415 1.364.465 2.428.012.266.022.488.03.712l.006.194A79.4 79.4 0 0120 8.972l.001.746v1.31c.002.73-.005 1.46-.023 2.19l-.006.193c-.008.224-.018.445-.03.712-.05 1.064-.22 1.79-.466 2.427a4.884 4.884 0 01-1.153 1.772c-.5.509-1.105.902-1.772 1.153-.637.247-1.363.415-2.427.465-.267.012-.488.022-.712.03l-.194.006c-.73.018-1.46.026-2.189.023l-.746.001H8.974a78.69 78.69 0 01-2.189-.023l-.194-.006a60.403 60.403 0 01-.712-.03c-1.064-.05-1.79-.22-2.428-.466a4.888 4.888 0 01-1.77-1.153A4.904 4.904 0 01.525 16.55C.278 15.913.11 15.187.06 14.123a74.361 74.361 0 01-.03-.712l-.005-.194A79.05 79.05 0 010 11.028V8.972a78.82 78.82 0 01.022-2.188L.03 6.59c.008-.224.018-.446.03-.712.05-1.065.218-1.79.465-2.428a4.88 4.88 0 011.156-1.77A4.897 4.897 0 013.451.525C4.09.278 4.814.11 5.88.06l.712-.03.194-.005A79.736 79.736 0 018.973 0l2.056.001zm-1.029 5a5 5 0 100 10 5 5 0 000-10zm0 2a3 3 0 11.001 6 3 3 0 110-6zm5.25-3.5a1.25 1.25 0 000 2.498 1.25 1.25 0 000-2.5v.002z" fill="#fff"/></svg>