<svg width="124" height="19" fill="none" xmlns="http://www.w3.org/2000/svg"><path opacity=".8" d="M.66 17.86l.317-3.575c.28.063.64.094 1.078.094.218 0 .406-.02.562-.059.156-.047.328-.152.516-.316.195-.164.36-.395.492-.691.133-.297.266-.711.398-1.243.133-.539.239-1.183.317-1.933a41.44 41.44 0 00.2-2.801c.054-1.117.081-2.387.081-3.809V1.195h12.914V18h-4.652V5.285H8.969v.645c0 1.445-.047 2.75-.14 3.914a26.54 26.54 0 01-.376 3.011 11.932 11.932 0 01-.633 2.215c-.25.633-.523 1.149-.82 1.547-.297.399-.64.723-1.031.973-.39.242-.785.41-1.184.504-.398.093-.844.14-1.336.14-.539 0-1.078-.043-1.617-.129-.531-.085-.922-.168-1.172-.246zm19.277-8.262a8.47 8.47 0 01.692-3.387 8.74 8.74 0 011.898-2.79c.797-.78 1.758-1.401 2.883-1.862a9.396 9.396 0 013.598-.692 9.31 9.31 0 013.586.692c1.125.453 2.082 1.07 2.87 1.851a8.303 8.303 0 011.876 2.777 8.529 8.529 0 01.691 3.41 8.438 8.438 0 01-.703 3.4 8.583 8.583 0 01-1.887 2.788c-.797.781-1.757 1.402-2.882 1.863a9.395 9.395 0 01-3.598.692c-1.695 0-3.234-.387-4.617-1.16-1.383-.782-2.465-1.836-3.246-3.164-.774-1.336-1.16-2.809-1.16-4.418zm4.77 0c0 1.242.406 2.308 1.219 3.199.812.89 1.84 1.336 3.082 1.336 1.258 0 2.285-.438 3.082-1.313.797-.883 1.195-1.957 1.195-3.222 0-1.243-.406-2.309-1.219-3.2-.812-.89-1.847-1.335-3.105-1.335-1.242 0-2.262.44-3.059 1.324-.797.875-1.195 1.945-1.195 3.21zM40.457 18V1.195h12.094v4.09h-7.442V18h-4.652zm13.488-8.402c0-1.188.23-2.317.692-3.387a8.738 8.738 0 011.898-2.79c.797-.78 1.758-1.401 2.883-1.862a9.396 9.396 0 013.598-.692c1.273 0 2.468.23 3.586.692 1.125.453 2.082 1.07 2.87 1.851a8.306 8.306 0 011.876 2.777 8.53 8.53 0 01.691 3.41 8.438 8.438 0 01-.703 3.4 8.583 8.583 0 01-1.887 2.788c-.797.781-1.758 1.402-2.883 1.863a9.395 9.395 0 01-3.597.692c-1.696 0-3.235-.387-4.617-1.16-1.383-.782-2.465-1.836-3.246-3.164-.774-1.336-1.16-2.809-1.16-4.418zm4.77 0c0 1.242.406 2.308 1.219 3.199.812.89 1.84 1.336 3.082 1.336 1.257 0 2.285-.438 3.082-1.313.796-.883 1.195-1.957 1.195-3.222 0-1.243-.406-2.309-1.219-3.2-.812-.89-1.847-1.335-3.105-1.335-1.242 0-2.262.44-3.059 1.324-.797.875-1.195 1.945-1.195 3.21zm14.812-4.313v-4.09H88.27v4.09h-5.05V18h-4.653V5.285h-5.039zM90.31 18V1.195h4.605v9.457l6.504-9.457h4.348V18h-4.606V8.543L94.656 18H90.31zm18.421 0V1.195h15.047V18h-4.652V5.285h-5.742V18h-4.653z" fill="#fff"/></svg>