<svg width="17" height="16" fill="none" xmlns="http://www.w3.org/2000/svg"><path d="M8.621 3.81a.525.525 0 10-.164-1.036.525.525 0 00.164 1.037zm-4.768.107a.647.647 0 00-.414.228.53.53 0 00-.113.426c.026.15.117.284.253.373.136.09.306.126.472.102l-.198-1.13zm2.702.772a.647.647 0 00.413-.229.53.53 0 00.114-.425.566.566 0 00-.253-.374.688.688 0 00-.472-.102l.198 1.13zM4.447 7.304a.647.647 0 00-.414.229.53.53 0 00-.113.426c.026.15.118.284.254.373a.686.686 0 00.472.102l-.199-1.13zm6.458.235a.68.68 0 00.237-.074.615.615 0 00.185-.152.517.517 0 00.03-.641.602.602 0 00-.171-.165.701.701 0 00-.479-.097l.198 1.13zm-6.06 2.024a.647.647 0 00-.414.23.53.53 0 00-.113.425c.026.15.117.284.253.373a.687.687 0 00.472.102l-.198-1.13zm5.206.414a.68.68 0 00.236-.074.617.617 0 00.186-.152.517.517 0 00.03-.641.6.6 0 00-.172-.165.701.701 0 00-.479-.097l.2 1.13zm5.181-5.41v9.718H16.5V4.567h-1.268zm-.633 10.29H5.726V16h8.873v-1.143zm-8.873 0a.67.67 0 01-.449-.168.545.545 0 01-.185-.404H3.824c0 .455.2.891.557 1.213.357.321.84.502 1.345.502v-1.143zm9.506-.572a.545.545 0 01-.185.404.67.67 0 01-.448.168V16c.504 0 .987-.18 1.344-.502.357-.322.557-.758.557-1.213h-1.268zM14.6 3.995c.168 0 .329.06.448.168a.545.545 0 01.185.404H16.5c0-.455-.2-.89-.557-1.212a2.011 2.011 0 00-1.344-.503v1.144zm-9.507 10.29v-1.143H3.824v1.143h1.268zM14.6 2.852h-1.902v1.144H14.6V2.852zM4.05 5.046l2.504-.357-.198-1.13-2.504.358.198 1.13zm.595 3.388l6.26-.895-.199-1.129-6.26.894.199 1.13zm.396 2.258l5.008-.715-.198-1.13-5.008.716.198 1.129zm-2.739-8.29l8.764-1.251L10.87.02 2.105 1.275l.198 1.128zm9.49-.776l1.685 9.597 1.252-.178-1.686-9.598-1.252.179zm1.158 10.251L4.187 13.13l.198 1.13 8.764-1.253-.198-1.129zm-9.49.777L1.777 3.056l-1.252.179 1.686 9.598 1.252-.179zm.726.475a.687.687 0 01-.472-.102.566.566 0 01-.253-.373l-1.252.179a1.7 1.7 0 00.76 1.119c.408.267.917.377 1.415.306l-.198-1.129zm9.291-1.906a.517.517 0 01-.113.426.612.612 0 01-.182.151.678.678 0 01-.232.077l.197 1.13a1.943 1.943 0 001.242-.686 1.59 1.59 0 00.34-1.277l-1.252.18zM11.066 1.15a.688.688 0 01.472.102c.136.09.227.223.254.373l1.251-.179a1.7 1.7 0 00-.76-1.119 2.06 2.06 0 00-1.414-.306l.197 1.13zm-8.961.124a2.034 2.034 0 00-.697.23 1.842 1.842 0 00-.545.454 1.643 1.643 0 00-.31.608 1.55 1.55 0 00-.029.669l1.252-.18a.517.517 0 01.113-.425.614.614 0 01.182-.151.678.678 0 01.232-.077l-.198-1.128z" fill="#fff"/></svg>