<svg width="100" height="18" fill="none" xmlns="http://www.w3.org/2000/svg"><path d="M8.738.262L10.7 6.3h6.349l-5.137 3.731 1.962 6.038-5.136-3.731-5.136 3.731 1.962-6.038L.428 6.3h6.348L8.738.262zm20.476 0L31.176 6.3h6.349l-5.136 3.731 1.961 6.038-5.136-3.731-5.136 3.731 1.962-6.038L20.904 6.3h6.348L29.214.262zm20.476 0L51.653 6.3h6.349l-5.136 3.731 1.962 6.038-5.136-3.731-5.137 3.731 1.962-6.038L41.38 6.3h6.349L49.69.262zm20.477 0L72.129 6.3h6.348l-5.136 3.731 1.962 6.038-5.136-3.731-5.136 3.731 1.962-6.038L61.856 6.3h6.349L70.167.262zm20.476 0L92.605 6.3h6.348l-5.136 3.731 1.962 6.038-5.136-3.731-5.136 3.731 1.962-6.038L82.333 6.3h6.348L90.643.262z" fill="#FFB84D"/></svg>