<svg width="21" height="20" fill="none" xmlns="http://www.w3.org/2000/svg"><path d="M10.38 0l.524.014.522.04.52.07.514.095.509.122.502.148.493.175.484.2.473.226.46.25.446.273.432.297.415.319.398.34.38.36.36.38.34.398.319.415.297.432.273.446.25.46.225.473.2.483.175.494.15.502.121.509.096.515.068.519.041.522.014.523-.014.523-.04.522-.07.52-.095.514-.122.51-.149.501-.174.494-.2.483-.226.473-.25.46-.273.446-.297.432-.319.415-.34.398-.36.38-.38.36-.398.34-.415.32-.432.296-.446.273-.46.25-.473.226-.484.2-.493.175-.502.148-.509.123-.515.095-.519.068-.522.041-.523.014-.524-.014-.521-.04-.52-.07-.514-.095-.51-.122-.501-.148-.494-.175-.484-.2-.472-.226-.46-.25-.447-.273-.431-.297-.415-.319-.398-.34-.38-.36-.36-.38-.34-.398-.32-.415-.296-.432L1.721 15l-.25-.46-.226-.473-.2-.483-.175-.494-.148-.502-.123-.509-.095-.515-.068-.519-.041-.522L.38 10l.014-.523.04-.522.069-.52.095-.514.123-.51.148-.501.175-.494.2-.483.226-.473.25-.46.273-.446.297-.432.318-.415.34-.398.36-.38.38-.36.399-.34.415-.32.431-.296.447-.273.46-.25.472-.225.484-.2.494-.176.502-.148.509-.122.515-.096.519-.068.521-.041L10.38 0z" fill="#00EC09"/><path d="M8.38 9.545l1.546 1.546L13.017 8" stroke="#fff" stroke-width="2" stroke-linecap="round"/></svg>