<svg width="21" height="20" fill="none" xmlns="http://www.w3.org/2000/svg"><path d="M10.38 0l1.602 2.468L14.448.865l.459 2.906 2.905-.462-.763 2.841 2.842.76-1.852 2.285 2.287 1.85-2.622 1.334L19.041 15l-2.938.152.156 2.938-2.746-1.056-1.053 2.748-2.08-2.082-2.078 2.082-1.053-2.748-2.746 1.056.156-2.938L1.72 15l1.337-2.62-2.622-1.335 2.287-1.85L.87 6.91l2.842-.76-.763-2.841 2.906.462.458-2.906L8.78 2.468 10.38 0z" fill="#00AEEC"/><path d="M8.38 9.545l1.546 1.546L13.017 8" stroke="#fff" stroke-width="2" stroke-linecap="round"/></svg>