<svg width="20" height="18" fill="none" xmlns="http://www.w3.org/2000/svg"><path fill-rule="evenodd" clip-rule="evenodd" d="M16.827 16.574v-.002l.018-.043 3-15.12v-.048c0-.377-.14-.706-.443-.903-.265-.173-.57-.185-.784-.169a2.68 2.68 0 00-.586.12 3.217 3.217 0 00-.24.088l-.013.005L1.06 7.061l-.005.002a2.271 2.271 0 00-.49.251C.35 7.462-.06 7.81.01 8.362c.057.458.372.748.585.899.126.088.261.162.403.22l.032.014.01.003.007.003 2.926.985c-.01.183.008.37.057.555L5.494 16.6a1.5 1.5 0 002.834.196l2.288-2.446 3.93 3.012.055.024c.357.156.69.205.995.164.305-.042.547-.17.73-.315.21-.17.378-.388.49-.635l.007-.017.003-.006.001-.003zM5.48 10.659a.3.3 0 01.13-.33l9.921-6.3s.584-.355.563 0c0 0 .104.062-.209.353-.296.277-7.07 6.818-7.757 7.48a.278.278 0 00-.077.136l-1.106 4.22-1.465-5.56v.001z" fill="#fff"/></svg>